<svg xmlns="http://www.w3.org/2000/svg" viewBox="0 0 349.36 343.83"><defs><style>.cls-1{fill:#ffb000;}.cls-2{font-size:45px;fill:#fff;font-family:HalyardDisplay-Regular, Halyard Display;}</style></defs><title>Asset 1</title><g id="Layer_2" data-name="Layer 2"><g id="Layer_1-2" data-name="Layer 1"><path class="cls-1" d="M339.69,175.88a153.28,153.28,0,0,1-23.73,82l-5.72,64.43-55.46-8a165.7,165.7,0,0,1-77.59,19.09c-89.74,0-162.5-70.51-162.5-157.5s72.76-157.5,162.5-157.5S339.69,88.89,339.69,175.88Z"/><text class="cls-2" transform="matrix(-0.21, -0.98, -0.98, 0.21, 302.13, 161.71)">b</text><text class="cls-2" transform="matrix(-0.39, -0.92, -0.92, 0.39, 297.34, 139.59)">a</text><text class="cls-2" transform="matrix(-0.54, -0.84, -0.84, 0.54, 289.35, 120.42)">c</text><text class="cls-2" transform="matrix(-0.68, -0.73, -0.73, 0.68, 278.1, 103.01)">k</text><text class="cls-2" transform="matrix(-0.77, -0.64, -0.64, 0.77, 264.5, 88.49)">r</text><text class="cls-2" transform="matrix(-0.85, -0.53, -0.53, 0.85, 255.52, 80.51)">o</text><text class="cls-2" transform="matrix(-0.93, -0.37, -0.37, 0.93, 236.6, 68.68)">n</text><text class="cls-2" transform="matrix(-0.97, -0.23, -0.23, 0.97, 217.43, 60.9)">y</text><text class="cls-2" transform="matrix(-1, -0.03, -0.03, 1, 199.21, 55.81)">m</text><text class="cls-2" transform="matrix(-0.99, 0.13, 0.13, 0.99, 166.17, 55.78)"> </text><text class="cls-2" transform="matrix(-0.97, 0.24, 0.24, 0.97, 158.19, 56.37)">g</text><text class="cls-2" transform="matrix(-0.92, 0.4, 0.4, 0.92, 137.57, 61.33)">e</text><text class="cls-2" transform="matrix(-0.84, 0.54, 0.54, 0.84, 117.76, 69.76)">n</text><text class="cls-2" transform="matrix(-0.73, 0.68, 0.68, 0.73, 99.71, 81.34)">e</text><text class="cls-2" transform="matrix(-0.63, 0.78, 0.78, 0.63, 83.92, 96.22)">r</text><text class="cls-2" transform="matrix(-0.52, 0.85, 0.85, 0.52, 75.77, 105.62)">a</text><text class="cls-2" transform="matrix(-0.4, 0.92, 0.92, 0.4, 65.08, 123.32)">t</text><text class="cls-2" transform="matrix(-0.27, 0.96, 0.96, 0.27, 59.79, 134.18)">o</text><text class="cls-2" transform="matrix(-0.12, 0.99, 0.99, 0.12, 54.02, 155.84)">r</text><text class="cls-2" transform="translate(302.63 167.51) rotate(91.98)">b</text><text class="cls-2" transform="translate(301.89 190.13) rotate(102.57)">a</text><text class="cls-2" transform="translate(297.47 210.42) rotate(112.69)">c</text><text class="cls-2" transform="translate(289.52 229.56) rotate(122.37)">k</text><text class="cls-2" transform="translate(278.75 246.29) rotate(130.24)">r</text><text class="cls-2" transform="matrix(-0.74, 0.67, -0.67, -0.74, 271.35, 255.76)">o</text><text class="cls-2" transform="translate(254.86 270.79) rotate(147.76)">n</text><text class="cls-2" transform="translate(237.4 281.88) rotate(156.62)">y</text><text class="cls-2" transform="translate(220.39 290.16) rotate(168.1)">m</text><text class="cls-2" transform="matrix(-1, 0.05, -0.05, -1, 187.89, 296.11)"> </text><text class="cls-2" transform="translate(179.93 296.96) rotate(-176.43)">g</text><text class="cls-2" transform="translate(158.76 295.78) rotate(-167.03)">e</text><text class="cls-2" transform="translate(137.76 291.04) rotate(-157.35)">n</text><text class="cls-2" transform="translate(117.92 282.89) rotate(-147.6)">e</text><text class="cls-2" transform="translate(99.72 271.08) rotate(-139.47)">r</text><text class="cls-2" transform="matrix(-0.66, -0.75, 0.75, -0.66, 89.31, 262.68)">n</text><text class="cls-2" transform="translate(75.1 246.69) rotate(-121.34)">a</text><text class="cls-2" transform="translate(64.51 228.95) rotate(-113.22)">t</text><text class="cls-2" transform="translate(59.32 218.07) rotate(-104.97)">o</text><text class="cls-2" transform="translate(53.78 196.37) rotate(-96.15)">r</text><text class="cls-2" transform="translate(52.42 183.13) rotate(-91.14)"> </text></g></g></svg>