<svg xmlns="http://www.w3.org/2000/svg" viewBox="0 0 325 315"><defs><style>.cls-1{fill:#212121;}.cls-2{fill:#ff7600;}</style></defs><title>Asset 2</title><g id="Layer_2" data-name="Layer 2"><g id="Layer_1-2" data-name="Layer 1"><path class="cls-1" d="M325,157.5a153.26,153.26,0,0,1-23.73,82l-5.72,64.43-55.46-8A165.58,165.58,0,0,1,162.5,315C72.76,315,0,244.49,0,157.5S72.76,0,162.5,0,325,70.51,325,157.5Z"/><path class="cls-2" d="M284.13,131.29C283,125.88,286.31,121,293,119.54H293c6.68-1.45,11.55,1.67,12.71,7a7.93,7.93,0,0,1-2,7.43l11.92-2.6.92,4.22-29.68,6.48-.92-4.22,3-.66A8,8,0,0,1,284.13,131.29Zm3.92.2c.8,3.69,4,5.24,8.13,4.35l.35-.07c4.13-.91,6.55-3.78,5.76-7.39s-3.69-5.32-8.13-4.35l-.31.07C289.36,125.08,287.29,128,288.05,131.49Z"/><path class="cls-2" d="M278.83,114.54a7.83,7.83,0,0,1,.65-8l-2.94,1.24-1.66-3.93,3-1.24,9.66-4.08c5-2.1,8.47-.07,10.59,5,2.19,5.18,1,9.78-3.33,11.76l-1.74-4.1.25-.1c2.13-1.1,2.79-3.23,1.56-6.13s-3-3.67-4.63-3L290,102c-.9.87-.25,3,.45,6.6.88,4.76,1.27,8.45-3.12,10.31C284,120.34,280.6,118.73,278.83,114.54Zm2.79-2.06c.91,2.16,2.5,2.91,4.11,2.22,2.08-.87,2-3,1.64-5.48-.35-2.1-.89-4.31-.57-5.86l-2.4,1C280.72,106.32,280.41,109.63,281.62,112.48Z"/><path class="cls-2" d="M268.08,93.58c-2.82-4.34-2.26-8.52.6-12l3.4,2.84c-2,2.17-2.68,4.37-.82,7.24,2,3.09,5.68,3.29,9.19,1l.15-.09c3.55-2.31,4.75-5.83,2.74-8.92-1.67-2.57-3.94-2.92-6.59-2l-1.21-4.26a9.24,9.24,0,0,1,10.88,4.2c3.39,5.2,1.89,11.33-3.43,14.79S271.54,98.9,268.08,93.58Z"/><path class="cls-2" d="M281.18,60.17l2.93,3.17L261.82,83.92l-2.93-3.18,4.73-4.36.52-5-11.63,2.46-3.29-3.57,15.18-3.12.76-10.92L268.64,60l-1.42,13.06Z"/><path class="cls-2" d="M258.08,50.42l3.41,2.8L248,69.63l-3.41-2.8,6.92-8.42c2.74-3.33,3.15-5.45.23-7.85l-1.57-1.29,2.75-3.33.52.43c3,2.45,3.24,4.76,2.16,7.07Z"/><path class="cls-2" d="M230.7,57.26c-5.31-3.3-6.69-9.51-3.32-14.94s9.53-7.06,14.84-3.76,6.66,9.49,3.24,15S236,60.56,230.7,57.26Zm2-3.17c3.21,2,6.62.93,8.92-2.77l.1-.16c2.35-3.78,1.76-7.43-1.45-9.42s-6.71-.89-9.06,2.89l-.1.16C228.81,48.46,229.43,52.07,232.68,54.09Z"/><path class="cls-2" d="M223.57,29.07l4.1,1.65-7.93,19.71-4.09-1.65,3.8-9.44c1.81-4.5,1.08-7.76-2-9-2.67-1.08-4.62,0-5.86,3.12l-4.74,11.78-4.13-1.67,4.81-12c2.12-5.26,5.87-7.1,10.13-5.39a6.56,6.56,0,0,1,4.39,6.57Z"/><path class="cls-2" d="M200.67,47.7l-.91,3.9-2.19-.51c-4.95-1.14-6.3-3.49-7-8.83l-2.8-24,4.56,1.06,1.47,16.59,9.09-14.15,4.52,1.05L194.68,41.24c.65,4.58,1.16,5.35,4,6Z"/><path class="cls-2" d="M178.35,17l4.41.12-.58,21.23-4.41-.12.33-11.87c.1-3.82-1.73-5.94-4.29-6s-3.91,1.42-4,4.57L169.45,38,165,37.9,165.32,26c.11-3.69-1.45-5.93-4.29-6-2.52-.07-3.91,1.42-4,4.57l-.36,13.09-4.45-.12.36-13.32c.14-5.26,2.79-8.29,6.84-8.18a6.82,6.82,0,0,1,6.76,4.82c1.08-3.35,3.5-4.54,6-4.47a6.25,6.25,0,0,1,6.09,4.35Z"/><path class="cls-2" d="M131.93,35.88c-5.24,1.3-9.44-.86-10.6-5.54a8.73,8.73,0,0,1-.22-2.21,3.1,3.1,0,0,0-3.5.12l-1.1-4.45a4.57,4.57,0,0,1,5.08,2,8.67,8.67,0,0,1,6.3-5.27c5-1.23,9.51,1.17,10.62,5.63A7.55,7.55,0,0,1,137,32.71c2.49-.06,4.18,1,4.62,2.75s-.55,3.39-2.52,4.43c2.58.29,4.42,1.55,4.93,3.6.95,3.85-2.2,6.85-9,8.53s-11.69.16-12.75-4.12,1.75-7.16,8.3-8.78l4.28-1.06c1.93-.48,3-1.45,2.78-2.45s-1.26-1.36-2.81-.88l-.31.07A9.84,9.84,0,0,1,131.93,35.88Zm-1-3.29c2.8-.69,4.2-2.89,3.57-5.42l0-.18a4.5,4.5,0,0,0-5.71-3.22c-2.75.68-4.27,3-3.64,5.53l0,.18C125.83,32.06,128.09,33.31,131,32.59Zm.71,10.16c-4.32,1.08-5.93,2.45-5.42,4.5s3.53,2.65,7.9,1.57,6.53-2.82,6.05-4.75-3.15-2.65-6-2Z"/><path class="cls-2" d="M112.28,48.92c-5,2.15-8.8.95-11.42-1.5l3-3c1.56,1.58,3.7,2.57,7,1.14s4.54-4.36,3.34-7.81L99.54,44.12l-.65-1.49c-2.65-6.15-.87-11.47,4.87-14,5.54-2.39,11.34.06,13.94,6.09S118.28,46.33,112.28,48.92Zm-7-17c-3.06,1.32-4.16,3.9-2.88,7.31L113,34.71C111.19,31.7,108.2,30.69,105.27,32Z"/><path class="cls-2" d="M85.84,38.24l3.71-2.4,11.56,17.82-3.7,2.4-5.54-8.53c-2.64-4.08-5.72-5.36-8.48-3.57-2.42,1.57-2.63,3.8-.82,6.6L89.48,61.2l-3.74,2.43-7-10.84c-3.08-4.75-2.43-8.88,1.42-11.38a6.55,6.55,0,0,1,7.9.19Z"/><path class="cls-2" d="M76.67,72.17c-4,3.69-8,3.82-11.27,2.39l1.84-3.78c2,1,4.35,1.19,7-1.26s2.84-5.62.56-8.48L63.05,71.88,62,70.69c-4.55-4.92-4.64-10.53-.05-14.78C66.33,51.82,72.62,52.2,77.08,57S81.47,67.74,76.67,72.17ZM64.41,58.5c-2.44,2.26-2.62,5-.28,7.85l8.47-7.82C69.91,56.29,66.76,56.33,64.41,58.5Z"/><path class="cls-2" d="M48.49,70.68l2.79-3.42,16.47,13.4L65,84.08l-8.45-6.87c-3.35-2.73-5.47-3.12-7.85-.19l-1.28,1.57L44,75.87l.43-.52c2.44-3,4.75-3.28,7.06-2.2Z"/><path class="cls-2" d="M57.06,95.81c-1.61,2.6-4,4.23-6.94,4.13l2.72,1.68-2.24,3.64-2.77-1.76L38.9,98c-4.6-2.83-5-6.87-2.11-11.5,3-4.79,7.38-6.5,11.51-4.12L46,86.18,45.74,86c-2.13-1.1-4.25-.4-5.9,2.28s-1.24,4.58.26,5.5l.27.17c1.23.23,2.58-1.53,5.12-4.2,3.35-3.48,6.14-5.94,10.2-3.44C58.8,88.26,59.44,91.94,57.06,95.81Zm-3.3-1.08c1.23-2,.91-3.72-.58-4.64-1.92-1.18-3.61.1-5.42,1.84-1.51,1.51-3,3.23-4.44,3.87l2.22,1.37C49.25,99,52.13,97.37,53.76,94.73Z"/><path class="cls-2" d="M45.29,117.56,41.75,116l1-2.31c.54-1.24.18-2-1-2.53l-10.63-4.66-1.85,4.2-3.46-1.52,1.84-4.2-6.22-2.73,4.15-2.85,3.79,1.66L30.69,98l3.46,1.52-1.36,3.09,11.13,4.88c3.07,1.4,4.28,3,2.89,6.63Z"/><path class="cls-2" d="M42.3,128.17c-1.67,6-7.25,9.1-13.41,7.38s-9.45-7.17-7.77-13.19,7.25-9.06,13.49-7.32S44,122.14,42.3,128.17Zm-3.59-1c1-3.65-1-6.63-5.17-7.8l-.17-.05c-4.29-1.19-7.63.4-8.65,4s1,6.69,5.33,7.89l.17,0C34.38,132.45,37.68,130.85,38.71,127.17Z"/><path class="cls-2" d="M17.45,142.67l.51-4.38,21.1,2.49-.52,4.38-10.82-1.28c-4.29-.5-6.28.3-6.73,4.06l-.23,2-4.29-.51.08-.67c.45-3.84,2.25-5.3,4.78-5.64Z"/><path class="cls-2" d="M290.82,156.89l-3.1-.11.14-4.31,30.36,1-.15,4.32-12.19-.42a8,8,0,0,1,3.28,7c-.19,5.44-4.42,9.39-11.26,9.15h0c-6.83-.23-11-4.43-10.82-10A8,8,0,0,1,290.82,156.89Zm7.06,12,.31,0c4.55.15,7.1-2.1,7.23-5.74s-2.77-6.09-7-6.23l-.36,0c-4.19-.14-7.09,2-7.23,5.74C290.72,166.21,293.29,168.73,297.88,168.88Z"/><path class="cls-2" d="M292.38,175.15c4.66,1,4.94,4.75,4.92,9.58,0,3.68-.29,5.88.75,6.58l.31.07c1.71.38,3.31-.6,4-3.76s-.35-5.06-2.64-5.75l-.26-.06,1-4.35c4.62,1.17,6.61,5.49,5.39,11-1.19,5.31-4.27,7.94-9.54,6.77l-10.23-2.29-3.21-.67.93-4.17,3.11.7a7.84,7.84,0,0,1-2.08-7.8C285.81,176.55,288.83,174.36,292.38,175.15ZM292.12,190l2.55.56c-.6-1.46-.46-3.74-.49-5.87-.09-2.51-.4-4.61-2.6-5.09-1.71-.39-3.14.63-3.65,2.92C287.26,185.54,288.16,188.73,292.12,190Z"/><path class="cls-2" d="M292.19,198.2c5.85,2.44,8.42,8.2,6,13.93a9.26,9.26,0,0,1-10,6.08l.43-4.41c2.77.38,4.93-.37,6.11-3.19,1.43-3.41-.39-6.65-4.29-8.29l-.16-.07c-3.87-1.61-7.44-.76-8.86,2.64-1.32,3.16-.28,5.2,2.1,7l-2.83,3.4c-3.45-3-4.75-7-2.75-11.74C280.45,197.68,286.21,195.7,292.19,198.2Z"/><path class="cls-2" d="M280.84,223.88l3.74,12.6-2.75,4.33-2.7-10.61-15.5-.34,2.6-4.11,11.88.34-1.41-4.83-5.43-3.45,2.31-3.65,25.61,16.24-2.31,3.65Z"/><path class="cls-2" d="M272.93,245.26c1.48,2.08,1.64,4.39-.86,7.35l-.44.51-3.29-2.79,1.3-1.54c2.45-2.89,1.67-4.9-1.63-7.69l-8.31-7,2.85-3.37,16.21,13.72-2.85,3.37Z"/><path class="cls-2" d="M262.93,247c4.35,4.8,4.14,11.13-.5,15.33s-10.92,3.76-15.27-1-4-11.09.59-15.29S258.58,242.17,262.93,247Zm-12.56,11.2.12.13c3,3.3,6.63,3.77,9.43,1.23s2.73-6.24-.26-9.54l-.12-.13c-2.93-3.23-6.48-3.66-9.28-1.12S247.47,255,250.37,258.17Z"/><path class="cls-2" d="M243.66,271.59a6.56,6.56,0,0,1-3.15,7.25c-3.88,2.45-7.9,1.31-10.92-3.49l-6.89-10.92,3.77-2.38,6.77,10.74c1.77,2.81,3.89,3.55,6.33,2,2.77-1.75,2.91-5.08.32-9.2l-5.43-8.6,3.73-2.35,11.33,18L245.79,275Z"/><path class="cls-2" d="M218.05,261.56c-2.68,1.16-3.05,2-2.86,6.64L231,284.07l-4.26,1.84-11.48-12.29,1.53,16.59-4.29,1.86-1.56-24.13c-.23-5.4.68-7.94,5.35-10l2.07-.89,1.58,3.67Z"/><path class="cls-2" d="M202.7,291.3a6.26,6.26,0,0,1-5.21,5.37,5.84,5.84,0,0,1-6.68-3.33,6.82,6.82,0,0,1-5.78,6c-4,.83-7.12-1.68-8.2-6.83l-2.75-13,4.36-.92,2.7,12.82c.65,3.08,2.29,4.3,4.75,3.78,2.78-.59,3.91-3.08,3.15-6.69l-2.45-11.62,4.36-.92,2.7,12.81c.64,3.08,2.28,4.3,4.75,3.78s3.93-2.94,3.14-6.68l-2.45-11.63,4.32-.91L207.78,294l-4.31.91Z"/><path class="cls-2" d="M157.22,285.3l.31,0c1.61.2,2.56-.47,2.61-1.37S159,282.17,157,282l-4.4-.27c-6.74-.42-10-2.84-9.75-7.15s4.71-6.78,11.81-6.34,10.6,2.83,10.35,6.78c-.13,2.11-1.72,3.68-4.2,4.43,2.12.67,3.38,2.15,3.27,3.9s-1.59,3.14-4.05,3.53a7.56,7.56,0,0,1,2.63,6.21c-.28,4.58-4.31,7.75-9.43,7.43a8.68,8.68,0,0,1-7.15-4.05,4.58,4.58,0,0,1-4.64,2.87l.29-4.58a3.1,3.1,0,0,0,3.46-.51,8.66,8.66,0,0,1-.18-2.22c.3-4.81,4-7.68,9.43-7.35A10.32,10.32,0,0,1,157.22,285.3Zm-1.63-7.13c2.87.18,5.37-.88,5.51-3s-2.28-3.3-6.82-3.58-7.35.84-7.48,2.95,1.69,3.18,6.14,3.45Zm-6.65,14.06v.18c-.17,2.6,1.74,4.61,4.57,4.79a4.5,4.5,0,0,0,5-4.19v-.18c.16-2.61-1.61-4.52-4.49-4.7S149.1,289.58,148.94,292.23Z"/><path class="cls-2" d="M140.62,288.36c-1.48,6.41-6.75,9.85-12.63,8.5-6.09-1.41-8.79-6.32-7.28-12.85l.36-1.58L136.63,286c.56-3.61-1.18-6.27-4.69-7.08s-5.44.55-6.69,2.38l-3.47-2.37c2.14-2.87,5.66-4.74,11-3.52C139.11,276.89,142.08,282,140.62,288.36Zm-4.65.92-11.22-2.59c-.64,3.59.89,5.93,4.14,6.68S134.76,292.55,136,289.28Z"/><path class="cls-2" d="M110.2,287a6.54,6.54,0,0,1-7.74,1.6c-4.24-1.77-5.62-5.71-3.43-10.94l5-11.92,4.11,1.72-4.88,11.71c-1.29,3.07-.67,5.23,2,6.34,3,1.26,5.84-.54,7.71-5l3.92-9.38,4.07,1.69-8.18,19.61-4.08-1.7Z"/><path class="cls-2" d="M96.67,273.76c-3.53,5.55-9.65,7.05-14.74,3.82-5.28-3.35-6.19-8.89-2.6-14.55l.87-1.37,13.49,8.56c1.72-3.22,1-6.31-2.07-8.24s-5.31-1.29-7.11,0L82,258.61c3-2,6.92-2.59,11.52.33C99.06,262.43,100.16,268.25,96.67,273.76ZM92,273.08l-9.73-6.17c-1.8,3.17-1.13,5.89,1.69,7.68S89.74,275.77,92,273.08Z"/><path class="cls-2" d="M68.64,262.48c-2.09,1.48-4.41,1.62-7.35-.89l-.51-.44,2.8-3.28,1.54,1.31c2.88,2.46,4.89,1.7,7.7-1.59l7.08-8.27,3.35,2.86L69.44,268.33l-3.35-2.87Z"/><path class="cls-2" d="M57.23,251.63a6.56,6.56,0,0,1-7.66-1.95c-3-3.44-2.55-7.59,1.71-11.34L61,229.81l2.94,3.34-9.52,8.39c-2.5,2.2-2.89,4.41-1,6.57,2.17,2.46,5.48,2.07,9.13-1.15l7.63-6.72,2.91,3.31-15.93,14-2.92-3.31Z"/><path class="cls-2" d="M55,231.17c-4.07,2.48-6.84,0-10.18-3.49-2.53-2.67-3.87-4.44-5.1-4.22l-.27.17c-1.5.91-2,2.73-.29,5.5s3.76,3.4,5.89,2.31l.23-.14,2.32,3.8c-4.15,2.37-8.57.64-11.5-4.16-2.83-4.65-2.44-8.68,2.17-11.49l9-5.46L50,212.25l2.22,3.65-2.73,1.66a7.82,7.82,0,0,1,6.91,4.17C58.79,225.61,58.12,229.28,55,231.17ZM44.92,220.31l-2.23,1.35c1.44.65,2.92,2.38,4.42,3.89,1.8,1.75,3.48,3,5.41,1.87,1.5-.91,1.82-2.63.6-4.63C51.51,220.14,48.64,218.46,44.92,220.31Z"/><path class="cls-2" d="M46.31,203.39c1.36,3.62.14,5.23-3,6.6L32.2,214.78l1.33,3.1-3.47,1.49-1.33-3.1-3.81,1.63L20.8,215,27,212.34l-1.81-4.22,3.47-1.49,1.81,4.22,10.67-4.58c1.24-.53,1.61-1.27,1.08-2.52l-1-2.31,3.56-1.53Z"/><path class="cls-2" d="M34.12,202.34c-6.26,1.68-11.79-1.41-13.4-7.45s1.64-11.43,7.9-13.11S40.34,183.26,42,189.3,40.38,200.67,34.12,202.34ZM29.9,186.05l-.17,0c-4.3,1.15-6.38,4.17-5.41,7.82s4.31,5.28,8.61,4.13l.17-.05c4.22-1.12,6.22-4.08,5.24-7.73S34.08,184.93,29.9,186.05Z"/><path class="cls-2" d="M21.14,174.13c-2.53-.36-4.32-1.84-4.73-5.68l-.07-.68,4.29-.46.22,2c.41,3.76,2.39,4.59,6.69,4.12l10.83-1.16.47,4.38-21.12,2.28-.47-4.38Z"/></g></g></svg>